<mxfile host="app.diagrams.net" modified="2022-02-14T07:04:58.618Z" agent="5.0 (Windows)" etag="WBz7yjC19AgUCme7gpsh" version="16.0.0" type="github">
  <diagram id="FB2dFu-A-Ptwh0TkjylJ" name="Page-1">
    <mxGraphModel dx="1198" dy="621" grid="1" gridSize="10" guides="1" tooltips="1" connect="1" arrows="1" fold="1" page="1" pageScale="1" pageWidth="850" pageHeight="1100" math="0" shadow="0">
      <root>
        <mxCell id="0" />
        <mxCell id="1" parent="0" />
        <mxCell id="V5fwoYNDymsWBQW5XdQ3-1" value="Actor" style="shape=umlActor;verticalLabelPosition=bottom;verticalAlign=top;html=1;outlineConnect=0;" vertex="1" parent="1">
          <mxGeometry x="410" y="180" width="30" height="60" as="geometry" />
        </mxCell>
      </root>
    </mxGraphModel>
  </diagram>
</mxfile>
